<svg id="visual" viewBox="0 0 540 960" width="540" height="960" xmlns="http://www.w3.org/2000/svg" xmlns:xlink="http://www.w3.org/1999/xlink" version="1.1"><rect x="0" y="0" width="540" height="960" fill="#FFFFFF"></rect><path d="M0 528L12.8 519.7C25.7 511.3 51.3 494.7 77 512.5C102.7 530.3 128.3 582.7 154 582.7C179.7 582.7 205.3 530.3 231.2 525.8C257 521.3 283 564.7 308.8 575.7C334.7 586.7 360.3 565.3 386 548.7C411.7 532 437.3 520 463 517.3C488.7 514.7 514.3 521.3 527.2 524.7L540 528L540 961L527.2 961C514.3 961 488.7 961 463 961C437.3 961 411.7 961 386 961C360.3 961 334.7 961 308.8 961C283 961 257 961 231.2 961C205.3 961 179.7 961 154 961C128.3 961 102.7 961 77 961C51.3 961 25.7 961 12.8 961L0 961Z" fill="#00bcd4"></path><path d="M0 577L12.8 592.2C25.7 607.3 51.3 637.7 77 652C102.7 666.3 128.3 664.7 154 642.7C179.7 620.7 205.3 578.3 231.2 561.5C257 544.7 283 553.3 308.8 569.7C334.7 586 360.3 610 386 618C411.7 626 437.3 618 463 619.3C488.7 620.7 514.3 631.3 527.2 636.7L540 642L540 961L527.2 961C514.3 961 488.7 961 463 961C437.3 961 411.7 961 386 961C360.3 961 334.7 961 308.8 961C283 961 257 961 231.2 961C205.3 961 179.7 961 154 961C128.3 961 102.7 961 77 961C51.3 961 25.7 961 12.8 961L0 961Z" fill="#00c5c7"></path><path d="M0 605L12.8 617C25.7 629 51.3 653 77 666.8C102.7 680.7 128.3 684.3 154 685.7C179.7 687 205.3 686 231.2 682.8C257 679.7 283 674.3 308.8 677.5C334.7 680.7 360.3 692.3 386 694.8C411.7 697.3 437.3 690.7 463 684.8C488.7 679 514.3 674 527.2 671.5L540 669L540 961L527.2 961C514.3 961 488.7 961 463 961C437.3 961 411.7 961 386 961C360.3 961 334.7 961 308.8 961C283 961 257 961 231.2 961C205.3 961 179.7 961 154 961C128.3 961 102.7 961 77 961C51.3 961 25.7 961 12.8 961L0 961Z" fill="#00ccb1"></path><path d="M0 765L12.8 754.8C25.7 744.7 51.3 724.3 77 712.5C102.7 700.7 128.3 697.3 154 692.3C179.7 687.3 205.3 680.7 231.2 675.3C257 670 283 666 308.8 679.3C334.7 692.7 360.3 723.3 386 723.8C411.7 724.3 437.3 694.7 463 679.7C488.7 664.7 514.3 664.3 527.2 664.2L540 664L540 961L527.2 961C514.3 961 488.7 961 463 961C437.3 961 411.7 961 386 961C360.3 961 334.7 961 308.8 961C283 961 257 961 231.2 961C205.3 961 179.7 961 154 961C128.3 961 102.7 961 77 961C51.3 961 25.7 961 12.8 961L0 961Z" fill="#35d192"></path><path d="M0 765L12.8 771C25.7 777 51.3 789 77 779C102.7 769 128.3 737 154 728.2C179.7 719.3 205.3 733.7 231.2 745C257 756.3 283 764.7 308.8 757.3C334.7 750 360.3 727 386 726.2C411.7 725.3 437.3 746.7 463 762.7C488.7 778.7 514.3 789.3 527.2 794.7L540 800L540 961L527.2 961C514.3 961 488.7 961 463 961C437.3 961 411.7 961 386 961C360.3 961 334.7 961 308.8 961C283 961 257 961 231.2 961C205.3 961 179.7 961 154 961C128.3 961 102.7 961 77 961C51.3 961 25.7 961 12.8 961L0 961Z" fill="#6ed36f"></path><path d="M0 813L12.8 813.2C25.7 813.3 51.3 813.7 77 818.5C102.7 823.3 128.3 832.7 154 822.7C179.7 812.7 205.3 783.3 231.2 777.7C257 772 283 790 308.8 794.3C334.7 798.7 360.3 789.3 386 779.8C411.7 770.3 437.3 760.7 463 766.8C488.7 773 514.3 795 527.2 806L540 817L540 961L527.2 961C514.3 961 488.7 961 463 961C437.3 961 411.7 961 386 961C360.3 961 334.7 961 308.8 961C283 961 257 961 231.2 961C205.3 961 179.7 961 154 961C128.3 961 102.7 961 77 961C51.3 961 25.7 961 12.8 961L0 961Z" fill="#9ed249"></path><path d="M0 818L12.8 826.7C25.7 835.3 51.3 852.7 77 863.8C102.7 875 128.3 880 154 871.5C179.7 863 205.3 841 231.2 837.3C257 833.7 283 848.3 308.8 857.8C334.7 867.3 360.3 871.7 386 864.2C411.7 856.7 437.3 837.3 463 828.8C488.7 820.3 514.3 822.7 527.2 823.8L540 825L540 961L527.2 961C514.3 961 488.7 961 463 961C437.3 961 411.7 961 386 961C360.3 961 334.7 961 308.8 961C283 961 257 961 231.2 961C205.3 961 179.7 961 154 961C128.3 961 102.7 961 77 961C51.3 961 25.7 961 12.8 961L0 961Z" fill="#cecc24"></path><path d="M0 904L12.8 903.8C25.7 903.7 51.3 903.3 77 904.8C102.7 906.3 128.3 909.7 154 905.8C179.7 902 205.3 891 231.2 887C257 883 283 886 308.8 890.2C334.7 894.3 360.3 899.7 386 902.7C411.7 905.7 437.3 906.3 463 904.2C488.7 902 514.3 897 527.2 894.5L540 892L540 961L527.2 961C514.3 961 488.7 961 463 961C437.3 961 411.7 961 386 961C360.3 961 334.7 961 308.8 961C283 961 257 961 231.2 961C205.3 961 179.7 961 154 961C128.3 961 102.7 961 77 961C51.3 961 25.7 961 12.8 961L0 961Z" fill="#ffc107"></path></svg>